<svg width="837" height="425" fill="none" xmlns="http://www.w3.org/2000/svg"><rect x="89.305" y="230.678" width="160" height="160" rx="80" fill="#D8D9DB"/><path d="M145.41 304.524c.975-3.775 1.705-8.951 2.314-12.3.548 3.349 1.218 8.647 2.192 12.422l6.942 27.34c.548 2.253 2.192 2.983 4.019 2.983 1.948 0 3.47-.791 4.079-2.922l11.935-42.137c.061-.243.121-.487.121-.73 0-1.34-1.156-2.071-2.557-2.314-.243-.061-.548-.061-.791-.061-1.279 0-2.314.487-2.741 1.948l-7.672 28.923c-.791 2.984-1.705 8.525-2.314 11.813-.548-3.166-1.339-8.829-2.131-11.873l-7.246-28.071c-.487-1.948-1.887-2.74-3.836-2.74-2.07 0-3.471.792-3.958 2.679l-7.246 28.071c-.852 3.227-1.705 8.707-2.253 11.873-.548-3.105-1.339-8.707-2.192-11.934l-7.611-28.741c-.365-1.461-1.461-1.948-2.618-1.948-.305 0-.548 0-.853.061-1.4.243-2.557.974-2.557 2.375 0 .243.061.548.122.852l11.508 41.893c.609 2.192 2.192 2.983 4.08 2.983 1.948 0 3.409-.73 4.018-2.922l7.246-27.523zm44.828 10.656h13.761c9.682 0 15.284-5.298 15.284-14.431 0-8.647-5.419-13.579-15.04-13.579h-13.518c-4.323 0-6.211 1.888-6.211 6.576v38.605c0 1.766 1.157 2.618 2.862 2.618 1.644 0 2.862-.852 2.862-2.557V315.18zm0-5.115v-15.588c0-1.339.609-2.131 1.949-2.131h11.691c6.089 0 9.438 3.045 9.438 8.525 0 5.906-3.289 9.194-9.438 9.194h-13.64z" fill="#373938"/><path fill="#D8D9DB" d="M280.305 230.678h160v160h-160z"/><path d="M336.41 304.524c.975-3.775 1.705-8.951 2.314-12.3.548 3.349 1.218 8.647 2.192 12.422l6.942 27.34c.548 2.253 2.192 2.983 4.019 2.983 1.948 0 3.47-.791 4.079-2.922l11.935-42.137c.061-.243.121-.487.121-.73 0-1.34-1.156-2.071-2.557-2.314-.243-.061-.548-.061-.791-.061-1.279 0-2.314.487-2.741 1.948l-7.672 28.923c-.791 2.984-1.705 8.525-2.314 11.813-.548-3.166-1.339-8.829-2.131-11.873l-7.246-28.071c-.487-1.948-1.887-2.74-3.836-2.74-2.07 0-3.471.792-3.958 2.679l-7.246 28.071c-.852 3.227-1.705 8.707-2.253 11.873-.548-3.105-1.339-8.707-2.192-11.934l-7.611-28.741c-.365-1.461-1.461-1.948-2.618-1.948-.305 0-.548 0-.853.061-1.4.243-2.557.974-2.557 2.375 0 .243.061.548.122.852l11.508 41.893c.609 2.192 2.192 2.983 4.08 2.983 1.948 0 3.409-.73 4.018-2.922l7.246-27.523zm44.828 10.656h13.761c9.682 0 15.284-5.298 15.284-14.431 0-8.647-5.419-13.579-15.04-13.579h-13.518c-4.323 0-6.211 1.888-6.211 6.576v38.605c0 1.766 1.157 2.618 2.862 2.618 1.644 0 2.862-.852 2.862-2.557V315.18zm0-5.115v-15.588c0-1.339.609-2.131 1.949-2.131h11.691c6.089 0 9.438 3.045 9.438 8.525 0 5.906-3.289 9.194-9.438 9.194h-13.64z" fill="#373938"/><path d="M132.317 115.829c2.059-7.978 3.603-18.917 4.89-25.994 1.158 7.077 2.574 18.273 4.633 26.252l14.67 57.78c1.158 4.762 4.633 6.306 8.494 6.306 4.118 0 7.335-1.673 8.622-6.177l25.222-89.052c.129-.514.258-1.029.258-1.544 0-2.83-2.445-4.375-5.405-4.89-.515-.129-1.158-.129-1.673-.129-2.703 0-4.89 1.03-5.791 4.118l-16.215 61.127c-1.673 6.305-3.603 18.016-4.89 24.965-1.158-6.692-2.831-18.66-4.504-25.094l-15.314-59.325c-1.029-4.118-3.989-5.79-8.107-5.79-4.375 0-7.335 1.672-8.364 5.662l-15.314 59.324c-1.802 6.821-3.603 18.403-4.762 25.094-1.158-6.563-2.831-18.402-4.632-25.222L88.049 82.5c-.772-3.089-3.089-4.118-5.534-4.118-.643 0-1.158 0-1.801.128-2.96.515-5.405 2.06-5.405 5.019 0 .515.128 1.158.257 1.802l24.322 88.536c1.287 4.633 4.633 6.306 8.622 6.306 4.118 0 7.206-1.544 8.493-6.177l15.314-58.167zm123.308-38.606c-27.667 0-45.04 20.462-45.04 51.99 0 31.914 17.501 52.247 45.04 52.247 27.539 0 44.784-20.461 44.784-52.118 0-31.786-17.245-52.119-44.784-52.119zm0 11.067c19.561 0 32.043 15.958 32.043 40.279 0 25.867-11.967 41.695-32.043 41.695-19.689 0-32.3-16.086-32.3-40.922 0-24.837 12.354-41.052 32.3-41.052zm103.553-11.067c-27.667 0-45.04 20.462-45.04 51.99 0 31.914 17.501 52.247 45.04 52.247 27.539 0 44.783-20.461 44.783-52.118 0-31.786-17.244-52.119-44.783-52.119zm0 11.067c19.561 0 32.043 15.958 32.043 40.279 0 25.867-11.968 41.695-32.043 41.695-19.689 0-32.3-16.086-32.3-40.922 0-24.837 12.354-41.052 32.3-41.052zm74.985 50.06h29.083c20.461 0 32.3-11.196 32.3-30.499 0-18.274-11.453-28.697-31.785-28.697h-28.569c-9.137 0-13.126 3.989-13.126 13.898v81.587c0 3.732 2.445 5.534 6.048 5.534 3.475 0 6.049-1.802 6.049-5.405V138.35zm0-10.81V94.596c0-2.831 1.286-4.504 4.118-4.504h24.707c12.869 0 19.947 6.434 19.947 18.016 0 12.483-6.949 19.432-19.947 19.432h-28.825zm89.98 10.81h29.083c20.462 0 32.301-11.196 32.301-30.499 0-18.274-11.453-28.697-31.786-28.697h-28.569c-9.136 0-13.126 3.989-13.126 13.898v81.587c0 3.732 2.445 5.534 6.049 5.534 3.474 0 6.048-1.802 6.048-5.405V138.35zm0-10.81V94.596c0-2.831 1.287-4.504 4.118-4.504h24.708c12.869 0 19.946 6.434 19.946 18.016 0 12.483-6.949 19.432-19.946 19.432h-28.826zm78.141 38.091c0 9.781 3.99 13.77 13.126 13.77h49.416c3.346 0 5.276-2.831 5.276-5.92 0-3.217-1.93-5.662-5.276-5.662h-45.555c-2.96 0-4.633-1.544-4.633-4.504V83.786c0-3.732-2.574-5.404-6.177-5.404-3.474 0-6.177 1.672-6.177 5.533v81.716zm92.768-33.201h43.883c3.088 0 5.019-2.445 5.019-5.405 0-3.217-1.802-5.533-5.019-5.533h-43.883V94.853c0-3.088 1.287-4.504 4.376-4.504h45.298c3.346 0 5.147-2.445 5.147-5.662s-1.801-5.533-5.147-5.533h-48.644c-9.137 0-13.126 3.989-13.126 13.898v72.579c0 9.781 3.989 13.77 13.126 13.77h49.802c3.346 0 5.147-2.574 5.147-5.662 0-3.218-1.801-5.534-5.147-5.534h-46.07c-2.831 0-4.762-1.158-4.762-4.118V132.43z" fill="#C3C8CE"/></svg>