<svg width="1077" height="586" fill="none" xmlns="http://www.w3.org/2000/svg"><rect x="155.123" y="304.346" width="160" height="160" rx="80" fill="#D8D9DB"/><path d="M229.874 400.382h.42a867.97 867.97 0 003.069-9.533c.84-2.692 1.54-4.986 2.101-6.882.56-1.896.99-3.457 1.292-4.685.302-1.228.528-2.23.679-3.005.15-.797.237-1.422.258-1.874.043-.474.065-.884.065-1.228 0-.97-.065-1.885-.194-2.747a24.382 24.382 0 00-.42-2.456 26.883 26.883 0 00-.55-2.1 50.35 50.35 0 00-.484-1.712c3.791-1.638 5.805-2.478 6.042-2.521.237-.043.474-.064.711-.064.797 0 1.411.377 1.842 1.131.431.732.646 1.723.646 2.972 0 1.185-.172 2.671-.517 4.459-.323 1.767-.786 3.749-1.389 5.946a127.47 127.47 0 01-2.198 7.109 172.78 172.78 0 01-2.843 7.916 225.372 225.372 0 01-3.361 8.369 225.313 225.313 0 01-3.78 8.369h-3.91c-.517 0-.969-.033-1.357-.097a3.543 3.543 0 01-1.066-.42 2.874 2.874 0 01-.808-.808c-.215-.345-.409-.786-.582-1.325l-8.756-24.428a56.25 56.25 0 01-1.034 3.845 95.526 95.526 0 01-1.422 4.492 170.752 170.752 0 01-1.745 4.846 139.703 139.703 0 01-1.971 4.944 162.162 162.162 0 01-2.036 4.718 88.15 88.15 0 01-2.035 4.233h-4.104c-.517 0-.969-.033-1.357-.097a3.158 3.158 0 01-1.034-.42 2.874 2.874 0 01-.808-.808c-.237-.345-.452-.786-.646-1.325l-13.894-37.644-5.687 2.521-1.067-2.327a69.97 69.97 0 012.068-1.809 32.638 32.638 0 012.682-2.036 23.413 23.413 0 012.876-1.648c.948-.452 1.799-.678 2.553-.678.668 0 1.325.172 1.971.517.646.344 1.12.926 1.422 1.745l13.506 36.545h.388a75.44 75.44 0 001.939-4.976 124.4 124.4 0 001.744-5.235 147.123 147.123 0 001.487-5.138c.452-1.701.872-3.328 1.26-4.879a126.13 126.13 0 001.002-4.297c.301-1.336.56-2.499.775-3.49l-.258-.84a48.114 48.114 0 00-1.228-3.328 27.946 27.946 0 00-1.034-2.391c-.323-.668-.614-1.196-.873-1.584-.237-.409-.43-.732-.581-.969a6.104 6.104 0 012.552-1.293c.97-.258 1.821-.387 2.553-.387.582 0 1.088.043 1.519.129.452.065.851.205 1.195.42.345.215.647.528.905.937.28.388.528.894.743 1.519l12.764 35.802zm35.866-15.219c.431.15.937.269 1.519.355.495.108 1.109.194 1.841.258.733.065 1.584.097 2.553.097 2.219 0 4.028-.269 5.429-.807 1.4-.56 2.498-1.293 3.295-2.198a7.282 7.282 0 001.681-3.102c.301-1.163.452-2.369.452-3.619a20.61 20.61 0 00-.355-3.909 7.081 7.081 0 00-1.551-3.296c-.776-.948-1.928-1.702-3.458-2.262-1.508-.56-3.543-.84-6.107-.84-.797 0-1.658.021-2.585.064a29.33 29.33 0 00-2.714.259v19zm0 12.504c0 1.379.043 2.596.129 3.652.108 1.055.226 1.981.356 2.778.151.776.291 1.433.42 1.972.129.517.226.937.291 1.26-.324.172-.69.334-1.099.484a9.8 9.8 0 01-1.26.324 9.121 9.121 0 01-1.293.226c-.431.043-.84.064-1.228.064a7.49 7.49 0 01-1.583-.161 3.53 3.53 0 01-1.228-.517 2.658 2.658 0 01-.808-1.002c-.193-.409-.29-.926-.29-1.551v-38.71l-6.237.388v-2.844c.41-.15 1.11-.355 2.101-.614 1.012-.28 2.348-.549 4.006-.807 1.659-.28 3.662-.517 6.01-.711 2.37-.216 5.127-.323 8.272-.323 2.456 0 4.761.215 6.915.646 2.176.409 4.082 1.163 5.719 2.262 1.638 1.077 2.93 2.563 3.878 4.459.948 1.874 1.422 4.276 1.422 7.205 0 2.176-.367 4.126-1.099 5.849a11.977 11.977 0 01-3.167 4.394c-1.378 1.185-3.058 2.09-5.04 2.715-1.982.624-4.212.937-6.689.937h-1.26c-.56 0-1.217-.011-1.971-.033a120.6 120.6 0 01-2.488-.097 64.799 64.799 0 01-2.779-.193v7.948z" fill="#373938"/><path fill="#D8D9DB" d="M346.123 304.346h160v160h-160z"/><path d="M420.874 400.382h.42a867.97 867.97 0 003.069-9.533c.84-2.692 1.54-4.986 2.101-6.882.56-1.896.99-3.457 1.292-4.685.302-1.228.528-2.23.679-3.005.15-.797.237-1.422.258-1.874.043-.474.065-.884.065-1.228 0-.97-.065-1.885-.194-2.747a24.382 24.382 0 00-.42-2.456 26.883 26.883 0 00-.55-2.1 50.35 50.35 0 00-.484-1.712c3.791-1.638 5.805-2.478 6.042-2.521.237-.043.474-.064.711-.064.797 0 1.411.377 1.842 1.131.431.732.646 1.723.646 2.972 0 1.185-.172 2.671-.517 4.459-.323 1.767-.786 3.749-1.389 5.946a127.47 127.47 0 01-2.198 7.109 172.78 172.78 0 01-2.843 7.916 225.372 225.372 0 01-3.361 8.369 225.313 225.313 0 01-3.78 8.369h-3.91c-.517 0-.969-.033-1.357-.097a3.543 3.543 0 01-1.066-.42 2.874 2.874 0 01-.808-.808c-.215-.345-.409-.786-.582-1.325l-8.756-24.428a56.25 56.25 0 01-1.034 3.845 95.526 95.526 0 01-1.422 4.492 170.752 170.752 0 01-1.745 4.846 139.703 139.703 0 01-1.971 4.944 162.162 162.162 0 01-2.036 4.718 88.15 88.15 0 01-2.035 4.233h-4.104c-.517 0-.969-.033-1.357-.097a3.158 3.158 0 01-1.034-.42 2.874 2.874 0 01-.808-.808c-.237-.345-.452-.786-.646-1.325l-13.894-37.644-5.687 2.521-1.067-2.327a69.97 69.97 0 012.068-1.809 32.638 32.638 0 012.682-2.036 23.413 23.413 0 012.876-1.648c.948-.452 1.799-.678 2.553-.678.668 0 1.325.172 1.971.517.646.344 1.12.926 1.422 1.745l13.506 36.545h.388a75.44 75.44 0 001.939-4.976 124.4 124.4 0 001.744-5.235 147.123 147.123 0 001.487-5.138c.452-1.701.872-3.328 1.26-4.879a126.13 126.13 0 001.002-4.297c.301-1.336.56-2.499.775-3.49l-.258-.84a48.114 48.114 0 00-1.228-3.328 27.946 27.946 0 00-1.034-2.391c-.323-.668-.614-1.196-.873-1.584-.237-.409-.43-.732-.581-.969a6.104 6.104 0 012.552-1.293c.97-.258 1.821-.387 2.553-.387.582 0 1.088.043 1.519.129.452.065.851.205 1.195.42.345.215.647.528.905.937.28.388.528.894.743 1.519l12.764 35.802zm35.866-15.219c.431.15.937.269 1.519.355.495.108 1.109.194 1.841.258.733.065 1.584.097 2.553.097 2.219 0 4.028-.269 5.429-.807 1.4-.56 2.498-1.293 3.295-2.198a7.282 7.282 0 001.681-3.102c.301-1.163.452-2.369.452-3.619a20.61 20.61 0 00-.355-3.909 7.081 7.081 0 00-1.551-3.296c-.776-.948-1.928-1.702-3.458-2.262-1.508-.56-3.543-.84-6.107-.84-.797 0-1.658.021-2.585.064a29.33 29.33 0 00-2.714.259v19zm0 12.504c0 1.379.043 2.596.129 3.652.108 1.055.226 1.981.356 2.778.151.776.291 1.433.42 1.972.129.517.226.937.291 1.26-.324.172-.69.334-1.099.484a9.8 9.8 0 01-1.26.324 9.121 9.121 0 01-1.293.226c-.431.043-.84.064-1.228.064a7.49 7.49 0 01-1.583-.161 3.53 3.53 0 01-1.228-.517 2.658 2.658 0 01-.808-1.002c-.193-.409-.29-.926-.29-1.551v-38.71l-6.237.388v-2.844c.41-.15 1.11-.355 2.101-.614 1.012-.28 2.348-.549 4.006-.807 1.659-.28 3.662-.517 6.01-.711 2.37-.216 5.127-.323 8.272-.323 2.456 0 4.761.215 6.915.646 2.176.409 4.082 1.163 5.719 2.262 1.638 1.077 2.93 2.563 3.878 4.459.948 1.874 1.422 4.276 1.422 7.205 0 2.176-.367 4.126-1.099 5.849a11.977 11.977 0 01-3.167 4.394c-1.378 1.185-3.058 2.09-5.04 2.715-1.982.624-4.212.937-6.689.937h-1.26c-.56 0-1.217-.011-1.971-.033a120.6 120.6 0 01-2.488-.097 64.799 64.799 0 01-2.779-.193v7.948z" fill="#373938"/><path d="M253.363 219.269h.817a1695.197 1695.197 0 005.97-18.536 957.39 957.39 0 004.084-13.384c1.089-3.687 1.927-6.724 2.513-9.111.587-2.388 1.027-4.336 1.32-5.844.293-1.55.461-2.765.503-3.645.083-.921.125-1.717.125-2.387 0-1.885-.125-3.666-.377-5.341a46.648 46.648 0 00-.817-4.776 51.658 51.658 0 00-1.068-4.084 100.374 100.374 0 00-.942-3.33c7.372-3.184 11.289-4.818 11.75-4.902a7.78 7.78 0 011.382-.125c1.55 0 2.744.733 3.582 2.199.838 1.424 1.257 3.351 1.257 5.781 0 2.304-.336 5.194-1.006 8.671-.628 3.435-1.529 7.289-2.702 11.562s-2.597 8.881-4.273 13.824a332.84 332.84 0 01-5.529 15.394 440.702 440.702 0 01-6.535 16.275 437.776 437.776 0 01-7.352 16.274h-7.603c-1.005 0-1.885-.063-2.639-.188a6.921 6.921 0 01-2.073-.817c-.587-.377-1.111-.901-1.571-1.571-.419-.67-.796-1.529-1.131-2.576l-17.029-47.504c-.502 2.22-1.173 4.713-2.01 7.477a185.336 185.336 0 01-2.765 8.735 336.826 336.826 0 01-3.393 9.425 271.982 271.982 0 01-3.833 9.614 316.539 316.539 0 01-3.959 9.174 170.546 170.546 0 01-3.959 8.231h-7.98c-1.005 0-1.885-.063-2.639-.188a6.167 6.167 0 01-2.011-.817c-.586-.377-1.11-.901-1.57-1.571-.461-.67-.88-1.529-1.257-2.576l-27.019-73.204-11.059 4.902-2.074-4.525a133.58 133.58 0 014.021-3.518 63.08 63.08 0 015.216-3.959 45.25 45.25 0 015.592-3.205c1.843-.879 3.498-1.319 4.964-1.319 1.299 0 2.576.335 3.833 1.005 1.257.67 2.178 1.801 2.765 3.393l26.265 71.067h.754c1.341-3.1 2.597-6.325 3.77-9.676a241.323 241.323 0 003.393-10.18 284.733 284.733 0 002.891-9.991c.88-3.309 1.696-6.472 2.45-9.488a245.336 245.336 0 001.948-8.357 858.63 858.63 0 001.508-6.786l-.502-1.634c-.838-2.513-1.634-4.671-2.388-6.472-.712-1.843-1.382-3.393-2.011-4.65-.628-1.298-1.194-2.325-1.696-3.079a56.004 56.004 0 00-1.131-1.885c1.424-1.215 3.079-2.052 4.964-2.513 1.885-.503 3.539-.754 4.964-.754 1.131 0 2.115.084 2.953.251.88.126 1.655.398 2.325.817.67.419 1.256 1.026 1.759 1.822.545.754 1.026 1.739 1.445 2.953l24.82 69.622zm62.145-29.784c0 5.655.46 10.871 1.382 15.646.922 4.734 2.409 8.818 4.461 12.253 2.095 3.435 4.797 6.116 8.106 8.043 3.351 1.885 7.415 2.828 12.19 2.828 4.734 0 8.734-.964 12.002-2.891 3.309-1.927 5.99-4.608 8.043-8.043 2.094-3.435 3.602-7.519 4.524-12.253.963-4.733 1.445-9.928 1.445-15.583 0-5.32-.461-10.326-1.382-15.018-.922-4.733-2.409-8.859-4.462-12.378-2.052-3.519-4.733-6.305-8.043-8.357-3.309-2.053-7.351-3.079-12.127-3.079-4.775 0-8.839 1.068-12.19 3.204-3.309 2.095-6.011 4.923-8.106 8.483-2.052 3.561-3.539 7.687-4.461 12.379-.922 4.692-1.382 9.614-1.382 14.766zm68.49 0c0 6.912-.963 13.238-2.89 18.976-1.927 5.739-4.713 10.683-8.357 14.83-3.645 4.105-8.085 7.289-13.321 9.551-5.237 2.262-11.164 3.393-17.783 3.393-6.618 0-12.567-1.131-17.845-3.393-5.236-2.262-9.677-5.446-13.321-9.551-3.645-4.147-6.451-9.091-8.42-14.83-1.927-5.738-2.891-12.064-2.891-18.976 0-6.912.964-13.237 2.891-18.976 1.969-5.739 4.775-10.661 8.42-14.766 3.644-4.148 8.085-7.352 13.321-9.614 5.278-2.304 11.227-3.456 17.845-3.456 6.619 0 12.546 1.152 17.783 3.456 5.236 2.262 9.676 5.466 13.321 9.614 3.644 4.105 6.43 9.027 8.357 14.766 1.927 5.739 2.89 12.064 2.89 18.976zm32.8 0c0 5.655.461 10.871 1.383 15.646.921 4.734 2.409 8.818 4.461 12.253 2.095 3.435 4.797 6.116 8.106 8.043 3.351 1.885 7.415 2.828 12.19 2.828 4.734 0 8.734-.964 12.002-2.891 3.309-1.927 5.99-4.608 8.043-8.043 2.094-3.435 3.602-7.519 4.524-12.253.963-4.733 1.445-9.928 1.445-15.583 0-5.32-.461-10.326-1.382-15.018-.922-4.733-2.409-8.859-4.462-12.378-2.052-3.519-4.733-6.305-8.043-8.357-3.309-2.053-7.351-3.079-12.127-3.079-4.775 0-8.839 1.068-12.19 3.204-3.309 2.095-6.011 4.923-8.106 8.483-2.052 3.561-3.54 7.687-4.461 12.379-.922 4.692-1.383 9.614-1.383 14.766zm68.491 0c0 6.912-.963 13.238-2.89 18.976-1.927 5.739-4.713 10.683-8.357 14.83-3.645 4.105-8.085 7.289-13.322 9.551-5.236 2.262-11.163 3.393-17.782 3.393s-12.567-1.131-17.845-3.393c-5.237-2.262-9.677-5.446-13.321-9.551-3.645-4.147-6.451-9.091-8.42-14.83-1.927-5.738-2.891-12.064-2.891-18.976 0-6.912.964-13.237 2.891-18.976 1.969-5.739 4.775-10.661 8.42-14.766 3.644-4.148 8.084-7.352 13.321-9.614 5.278-2.304 11.226-3.456 17.845-3.456 6.619 0 12.546 1.152 17.782 3.456 5.237 2.262 9.677 5.466 13.322 9.614 3.644 4.105 6.43 9.027 8.357 14.766 1.927 5.739 2.89 12.064 2.89 18.976zm39.272.189c.838.293 1.823.523 2.954.691.963.209 2.157.377 3.581.503 1.424.125 3.079.188 4.964.188 4.315 0 7.834-.524 10.557-1.571 2.722-1.089 4.859-2.513 6.409-4.273a14.164 14.164 0 003.267-6.032c.587-2.262.88-4.608.88-7.037 0-2.681-.23-5.216-.691-7.604-.461-2.429-1.466-4.566-3.016-6.409-1.508-1.843-3.75-3.309-6.724-4.398-2.932-1.089-6.891-1.634-11.876-1.634-1.55 0-3.225.042-5.027.126a56.423 56.423 0 00-5.278.502v36.948zm0 24.317c0 2.681.084 5.048.252 7.1.209 2.053.439 3.854.691 5.404.293 1.508.565 2.786.817 3.833.251 1.006.44 1.822.565 2.451a17.09 17.09 0 01-2.136.942c-.754.252-1.571.461-2.451.629-.838.209-1.675.356-2.513.44-.838.083-1.634.125-2.388.125-1.089 0-2.115-.105-3.079-.314-.921-.209-1.717-.545-2.388-1.005a5.143 5.143 0 01-1.571-1.948c-.377-.796-.565-1.802-.565-3.016v-75.277l-12.127.754v-5.53c.796-.293 2.157-.691 4.084-1.194 1.969-.544 4.566-1.068 7.792-1.57 3.225-.545 7.121-1.006 11.687-1.383 4.608-.419 9.97-.628 16.086-.628 4.775 0 9.258.419 13.447 1.256 4.231.796 7.938 2.263 11.122 4.399 3.183 2.094 5.697 4.985 7.54 8.671 1.843 3.645 2.765 8.316 2.765 14.013 0 4.231-.713 8.022-2.137 11.373-1.424 3.351-3.477 6.2-6.158 8.545-2.681 2.304-5.948 4.064-9.802 5.279-3.854 1.214-8.19 1.822-13.007 1.822h-2.451c-1.089 0-2.366-.021-3.833-.063a255.738 255.738 0 01-4.838-.189 123.897 123.897 0 01-5.404-.377v15.458zm83.823-24.317c.838.293 1.822.523 2.953.691.964.209 2.157.377 3.582.503 1.424.125 3.079.188 4.964.188 4.314 0 7.833-.524 10.556-1.571 2.723-1.089 4.859-2.513 6.409-4.273a14.177 14.177 0 003.268-6.032 27.95 27.95 0 00.879-7.037c0-2.681-.23-5.216-.691-7.604-.461-2.429-1.466-4.566-3.016-6.409-1.508-1.843-3.749-3.309-6.723-4.398-2.933-1.089-6.891-1.634-11.876-1.634-1.55 0-3.226.042-5.027.126a56.39 56.39 0 00-5.278.502v36.948zm0 24.317c0 2.681.084 5.048.251 7.1.21 2.053.44 3.854.691 5.404.294 1.508.566 2.786.817 3.833.252 1.006.44 1.822.566 2.451-.629.335-1.341.649-2.137.942-.754.252-1.571.461-2.45.629-.838.209-1.676.356-2.514.44-.838.083-1.633.125-2.387.125-1.09 0-2.116-.105-3.079-.314-.922-.209-1.718-.545-2.388-1.005a5.143 5.143 0 01-1.571-1.948c-.377-.796-.566-1.802-.566-3.016v-75.277l-12.127.754v-5.53c.796-.293 2.158-.691 4.085-1.194 1.968-.544 4.566-1.068 7.791-1.57 3.226-.545 7.121-1.006 11.688-1.383 4.607-.419 9.969-.628 16.085-.628 4.776 0 9.258.419 13.447 1.256 4.231.796 7.938 2.263 11.122 4.399 3.184 2.094 5.697 4.985 7.54 8.671 1.843 3.645 2.765 8.316 2.765 14.013 0 4.231-.712 8.022-2.136 11.373-1.425 3.351-3.477 6.2-6.158 8.545-2.681 2.304-5.949 4.064-9.803 5.279-3.853 1.214-8.189 1.822-13.006 1.822h-2.451c-1.089 0-2.367-.021-3.833-.063a255.414 255.414 0 01-4.838-.189c-1.76-.083-3.561-.209-5.404-.377v15.458zm83.697 10.933h11.373c5.613 0 11.247-.377 16.903-1.131a94.765 94.765 0 0016.651-3.77c0 .042.063.272.189.691.125.377.272.901.439 1.571.168.671.315 1.446.44 2.325.168.838.252 1.676.252 2.514 0 1.843-.482 3.267-1.446 4.272-.921 1.006-2.492 1.739-4.712 2.2-2.179.46-5.09.733-8.734.817-3.603.083-8.085.125-13.447.125-2.849 0-5.718-.021-8.609-.063a432.883 432.883 0 01-8.043-.188 144.939 144.939 0 01-6.66-.251 131.42 131.42 0 01-4.462-.252c-1.968-.167-3.288-.649-3.958-1.445-.629-.838-.943-2.157-.943-3.959v-76.722h-12.127v-4.964c.628-.335 1.571-.67 2.828-1.005a54.401 54.401 0 014.335-.943 62.907 62.907 0 015.467-.691 71.364 71.364 0 016.032-.251c1.634 0 2.974.021 4.022.063 1.047.042 1.885.167 2.513.377.628.167 1.068.481 1.32.942.251.461.377 1.089.377 1.885v77.853zm67.988 8.86c-1.969-.167-3.289-.649-3.959-1.445-.628-.838-.943-2.157-.943-3.959v-75.779h-12.001v-5.027c1.257-.419 3.246-.838 5.969-1.257 2.765-.461 5.991-.879 9.677-1.257 3.686-.377 7.729-.67 12.127-.879 4.399-.252 8.881-.377 13.447-.377 1.969 0 4.126.021 6.472.063 2.388.042 4.755.146 7.1.314 2.388.125 4.692.314 6.912.565 2.221.252 4.189.608 5.907 1.069 1.717.46 3.079 1.047 4.084 1.759 1.047.67 1.571 1.487 1.571 2.45 0 .419-.272 1.173-.817 2.263a54.096 54.096 0 01-1.759 3.456c-.67 1.172-1.32 2.283-1.948 3.33-.628 1.005-1.047 1.634-1.257 1.885 0-.042-.565-.44-1.696-1.194-1.09-.754-2.765-1.571-5.027-2.451-2.22-.921-5.006-1.759-8.357-2.513-3.352-.754-7.247-1.152-11.688-1.194l-13.949-.126v29.722h33.24v3.079c0 2.22-.482 3.749-1.445 4.587-.922.795-2.409 1.193-4.462 1.193h-27.333v32.863h11.373c5.613 0 11.248-.377 16.903-1.131a94.765 94.765 0 0016.651-3.77c0 .042.063.272.189.691a23.164 23.164 0 01.879 3.896c.168.838.252 1.676.252 2.514 0 1.968-.503 3.456-1.508 4.461-1.006 1.005-2.618 1.738-4.839 2.199-2.22.419-5.152.649-8.797.691-3.602.042-8.001.063-13.195.063-2.849 0-5.718-.021-8.609-.063a432.562 432.562 0 01-8.042-.188 144.93 144.93 0 01-6.661-.251 131.175 131.175 0 01-4.461-.252z" fill="#C3C8CE"/></svg>