<svg width="837" height="425" viewBox="0 0 837 425" fill="none" xmlns="http://www.w3.org/2000/svg">
<rect x="89.3047" y="230.678" width="160" height="160" rx="80" fill="#D8D9DB"/>
<path d="M145.41 304.524C146.385 300.749 147.115 295.573 147.724 292.224C148.272 295.573 148.942 300.871 149.916 304.646L156.858 331.986C157.406 334.239 159.05 334.969 160.877 334.969C162.825 334.969 164.347 334.178 164.956 332.047L176.891 289.91C176.952 289.667 177.012 289.423 177.012 289.18C177.012 287.84 175.856 287.109 174.455 286.866C174.212 286.805 173.907 286.805 173.664 286.805C172.385 286.805 171.35 287.292 170.923 288.753L163.251 317.676C162.46 320.66 161.546 326.201 160.937 329.489C160.389 326.323 159.598 320.66 158.806 317.616L151.56 289.545C151.073 287.597 149.673 286.805 147.724 286.805C145.654 286.805 144.253 287.597 143.766 289.484L136.52 317.555C135.668 320.782 134.815 326.262 134.267 329.428C133.719 326.323 132.928 320.721 132.075 317.494L124.464 288.753C124.099 287.292 123.003 286.805 121.846 286.805C121.541 286.805 121.298 286.805 120.993 286.866C119.593 287.109 118.436 287.84 118.436 289.241C118.436 289.484 118.497 289.789 118.558 290.093L130.066 331.986C130.675 334.178 132.258 334.969 134.146 334.969C136.094 334.969 137.555 334.239 138.164 332.047L145.41 304.524ZM190.238 315.18H203.999C213.681 315.18 219.283 309.882 219.283 300.749C219.283 292.102 213.864 287.17 204.243 287.17H190.725C186.402 287.17 184.514 289.058 184.514 293.746V332.351C184.514 334.117 185.671 334.969 187.376 334.969C189.02 334.969 190.238 334.117 190.238 332.412V315.18ZM190.238 310.065V294.477C190.238 293.138 190.847 292.346 192.187 292.346H203.878C209.967 292.346 213.316 295.391 213.316 300.871C213.316 306.777 210.027 310.065 203.878 310.065H190.238Z" fill="#373938"/>
<rect width="160" height="160" transform="translate(280.305 230.678)" fill="#D8D9DB"/>
<path d="M336.41 304.524C337.385 300.749 338.115 295.573 338.724 292.224C339.272 295.573 339.942 300.871 340.916 304.646L347.858 331.986C348.406 334.239 350.05 334.969 351.877 334.969C353.825 334.969 355.347 334.178 355.956 332.047L367.891 289.91C367.952 289.667 368.012 289.423 368.012 289.18C368.012 287.84 366.856 287.109 365.455 286.866C365.212 286.805 364.907 286.805 364.664 286.805C363.385 286.805 362.35 287.292 361.923 288.753L354.251 317.676C353.46 320.66 352.546 326.201 351.937 329.489C351.389 326.323 350.598 320.66 349.806 317.616L342.56 289.545C342.073 287.597 340.673 286.805 338.724 286.805C336.654 286.805 335.253 287.597 334.766 289.484L327.52 317.555C326.668 320.782 325.815 326.262 325.267 329.428C324.719 326.323 323.928 320.721 323.075 317.494L315.464 288.753C315.099 287.292 314.003 286.805 312.846 286.805C312.541 286.805 312.298 286.805 311.993 286.866C310.593 287.109 309.436 287.84 309.436 289.241C309.436 289.484 309.497 289.789 309.558 290.093L321.066 331.986C321.675 334.178 323.258 334.969 325.146 334.969C327.094 334.969 328.555 334.239 329.164 332.047L336.41 304.524ZM381.238 315.18H394.999C404.681 315.18 410.283 309.882 410.283 300.749C410.283 292.102 404.864 287.17 395.243 287.17H381.725C377.402 287.17 375.514 289.058 375.514 293.746V332.351C375.514 334.117 376.671 334.969 378.376 334.969C380.02 334.969 381.238 334.117 381.238 332.412V315.18ZM381.238 310.065V294.477C381.238 293.138 381.847 292.346 383.187 292.346H394.878C400.967 292.346 404.316 295.391 404.316 300.871C404.316 306.777 401.027 310.065 394.878 310.065H381.238Z" fill="#373938"/>
<path d="M132.317 115.829C134.376 107.851 135.92 96.9124 137.207 89.8346C138.365 96.9124 139.781 108.108 141.84 116.087L156.51 173.867C157.668 178.629 161.143 180.173 165.004 180.173C169.122 180.173 172.339 178.5 173.626 173.996L198.848 84.9445C198.977 84.4298 199.106 83.915 199.106 83.4003C199.106 80.5692 196.661 79.0249 193.701 78.5102C193.186 78.3815 192.543 78.3815 192.028 78.3815C189.325 78.3815 187.138 79.411 186.237 82.4995L170.022 143.626C168.349 149.931 166.419 161.642 165.132 168.591C163.974 161.899 162.301 149.931 160.628 143.497L145.314 84.1724C144.285 80.0544 141.325 78.3815 137.207 78.3815C132.832 78.3815 129.872 80.0544 128.843 84.0437L113.529 143.368C111.727 150.189 109.926 161.771 108.767 168.462C107.609 161.899 105.936 150.06 104.135 143.24L88.0488 82.4995C87.2766 79.411 84.9603 78.3815 82.5152 78.3815C81.8718 78.3815 81.357 78.3815 80.7136 78.5102C77.7538 79.0249 75.3087 80.5692 75.3087 83.529C75.3087 84.0437 75.4374 84.6871 75.5661 85.3306L99.888 173.867C101.175 178.5 104.521 180.173 108.51 180.173C112.628 180.173 115.716 178.629 117.003 173.996L132.317 115.829ZM255.625 77.2233C227.958 77.2233 210.585 97.6845 210.585 129.213C210.585 161.127 228.086 181.46 255.625 181.46C283.164 181.46 300.409 160.999 300.409 129.342C300.409 97.5558 283.164 77.2233 255.625 77.2233ZM255.625 88.2904C275.186 88.2904 287.668 104.248 287.668 128.569C287.668 154.436 275.701 170.264 255.625 170.264C235.936 170.264 223.325 154.178 223.325 129.342C223.325 104.505 235.679 88.2904 255.625 88.2904ZM359.178 77.2233C331.511 77.2233 314.138 97.6845 314.138 129.213C314.138 161.127 331.639 181.46 359.178 181.46C386.717 181.46 403.961 160.999 403.961 129.342C403.961 97.5558 386.717 77.2233 359.178 77.2233ZM359.178 88.2904C378.739 88.2904 391.221 104.248 391.221 128.569C391.221 154.436 379.253 170.264 359.178 170.264C339.489 170.264 326.878 154.178 326.878 129.342C326.878 104.505 339.232 88.2904 359.178 88.2904ZM434.163 138.35H463.246C483.707 138.35 495.546 127.154 495.546 107.851C495.546 89.5772 484.093 79.1536 463.761 79.1536H435.192C426.055 79.1536 422.066 83.1429 422.066 93.0518V174.639C422.066 178.371 424.511 180.173 428.114 180.173C431.589 180.173 434.163 178.371 434.163 174.768V138.35ZM434.163 127.54V94.596C434.163 91.7649 435.449 90.092 438.281 90.092H462.988C475.857 90.092 482.935 96.5264 482.935 108.108C482.935 120.591 475.986 127.54 462.988 127.54H434.163ZM524.143 138.35H553.226C573.688 138.35 585.527 127.154 585.527 107.851C585.527 89.5772 574.074 79.1536 553.741 79.1536H525.172C516.036 79.1536 512.046 83.1429 512.046 93.0518V174.639C512.046 178.371 514.491 180.173 518.095 180.173C521.569 180.173 524.143 178.371 524.143 174.768V138.35ZM524.143 127.54V94.596C524.143 91.7649 525.43 90.092 528.261 90.092H552.969C565.838 90.092 572.915 96.5264 572.915 108.108C572.915 120.591 565.966 127.54 552.969 127.54H524.143ZM602.284 165.631C602.284 175.412 606.274 179.401 615.41 179.401H664.826C668.172 179.401 670.102 176.57 670.102 173.481C670.102 170.264 668.172 167.819 664.826 167.819H619.271C616.311 167.819 614.638 166.275 614.638 163.315V83.7863C614.638 80.0544 612.064 78.3815 608.461 78.3815C604.987 78.3815 602.284 80.0544 602.284 83.915V165.631ZM695.052 132.43H738.935C742.023 132.43 743.954 129.985 743.954 127.025C743.954 123.808 742.152 121.492 738.935 121.492H695.052V94.8534C695.052 91.7649 696.339 90.3494 699.428 90.3494H744.726C748.072 90.3494 749.873 87.9043 749.873 84.6871C749.873 81.47 748.072 79.1536 744.726 79.1536H696.082C686.945 79.1536 682.956 83.1429 682.956 93.0518V165.631C682.956 175.412 686.945 179.401 696.082 179.401H745.884C749.23 179.401 751.031 176.827 751.031 173.739C751.031 170.521 749.23 168.205 745.884 168.205H699.814C696.983 168.205 695.052 167.047 695.052 164.087V132.43Z" fill="#C3C8CE"/>
</svg>
