<svg width="160" height="160" fill="none" xmlns="http://www.w3.org/2000/svg"><path fill="#fff" d="M0 0h160v160H0z"/><path d="M74.75 96.036h.42a869.308 869.308 0 003.07-9.532 486.16 486.16 0 002.1-6.883c.56-1.895.991-3.457 1.293-4.685.302-1.228.528-2.23.678-3.005.151-.797.237-1.422.259-1.874.043-.474.065-.883.065-1.228 0-.97-.065-1.885-.194-2.746a24.191 24.191 0 00-.42-2.456 26.552 26.552 0 00-.55-2.1 51.611 51.611 0 00-.484-1.713c3.791-1.637 5.805-2.477 6.042-2.52.237-.043.474-.065.711-.065.797 0 1.41.377 1.842 1.13.43.733.646 1.724.646 2.974 0 1.184-.172 2.67-.517 4.459-.323 1.766-.786 3.748-1.39 5.945a126.981 126.981 0 01-2.197 7.109c-.84 2.542-1.788 5.18-2.843 7.916a226.282 226.282 0 01-3.36 8.37 225.068 225.068 0 01-3.781 8.368h-3.91a8.3 8.3 0 01-1.357-.097 3.549 3.549 0 01-1.066-.42 2.878 2.878 0 01-.808-.808c-.215-.344-.41-.786-.582-1.325l-8.756-24.428a56.233 56.233 0 01-1.034 3.846 95.148 95.148 0 01-1.422 4.49 170.58 170.58 0 01-1.745 4.848 138.848 138.848 0 01-1.97 4.944 163.279 163.279 0 01-2.037 4.717 87.73 87.73 0 01-2.035 4.233h-4.104a8.3 8.3 0 01-1.357-.097 3.156 3.156 0 01-1.034-.42 2.877 2.877 0 01-.808-.808c-.237-.344-.452-.786-.646-1.325L27.575 63.207l-5.687 2.52-1.067-2.326a68.39 68.39 0 012.068-1.81c.84-.71 1.735-1.39 2.682-2.036a23.277 23.277 0 012.876-1.648c.948-.452 1.799-.678 2.553-.678.668 0 1.325.172 1.97.517.647.345 1.121.926 1.423 1.745l13.506 36.545h.388a74.737 74.737 0 001.938-4.976c.625-1.745 1.207-3.49 1.745-5.235a147.013 147.013 0 001.487-5.137 349.43 349.43 0 001.26-4.88c.388-1.55.722-2.983 1.002-4.297.301-1.336.56-2.499.775-3.49l-.258-.84a48.259 48.259 0 00-1.228-3.328 27.991 27.991 0 00-1.034-2.391c-.323-.668-.614-1.196-.873-1.583-.237-.41-.43-.733-.581-.97a6.11 6.11 0 012.552-1.292c.97-.259 1.82-.388 2.553-.388.582 0 1.088.043 1.519.13.452.064.85.204 1.195.42.345.215.647.527.905.936.28.388.528.894.743 1.519l12.764 35.802zm35.867-15.22c.431.152.937.27 1.519.356.495.108 1.109.194 1.841.259.733.064 1.584.097 2.553.097 2.219 0 4.028-.27 5.429-.808 1.4-.56 2.498-1.293 3.295-2.197a7.29 7.29 0 001.681-3.102c.301-1.164.452-2.37.452-3.62a20.61 20.61 0 00-.355-3.909 7.083 7.083 0 00-1.551-3.296c-.776-.948-1.928-1.702-3.458-2.262-1.508-.56-3.543-.84-6.107-.84-.797 0-1.659.022-2.585.065-.905.043-1.809.129-2.714.258v19zm0 12.506c0 1.378.043 2.595.129 3.65a47.64 47.64 0 00.356 2.78c.15.775.29 1.432.42 1.971.129.517.226.937.291 1.26-.324.172-.69.334-1.099.485a9.803 9.803 0 01-1.26.323 8.981 8.981 0 01-1.293.226c-.431.043-.84.065-1.228.065-.56 0-1.087-.054-1.583-.162a3.53 3.53 0 01-1.228-.517 2.642 2.642 0 01-.808-1.002c-.193-.409-.29-.926-.29-1.551V62.14l-6.237.388v-2.843c.41-.151 1.11-.356 2.1-.614 1.013-.28 2.349-.55 4.007-.808 1.659-.28 3.662-.517 6.01-.71 2.37-.216 5.127-.324 8.272-.324 2.456 0 4.761.215 6.915.646 2.176.41 4.082 1.163 5.719 2.262 1.638 1.077 2.93 2.563 3.878 4.46.948 1.873 1.422 4.275 1.422 7.205 0 2.175-.367 4.125-1.099 5.848a11.978 11.978 0 01-3.167 4.395c-1.378 1.184-3.058 2.09-5.04 2.714-1.982.625-4.212.937-6.689.937h-1.26c-.56 0-1.217-.01-1.971-.032s-1.583-.054-2.488-.097a64.66 64.66 0 01-2.779-.194v7.949z" fill="#373938"/></svg>