<svg width="160" height="160" fill="none" xmlns="http://www.w3.org/2000/svg"><path fill="#D8D9DB" d="M0 0h160v160H0z"/><path d="M56.106 73.846c.974-3.775 1.705-8.95 2.313-12.3.549 3.35 1.218 8.647 2.193 12.422l6.941 27.34c.548 2.253 2.192 2.984 4.019 2.984 1.948 0 3.47-.792 4.08-2.923l11.934-42.136c.06-.244.122-.487.122-.731 0-1.34-1.157-2.07-2.558-2.314-.243-.06-.548-.06-.791-.06-1.279 0-2.314.486-2.74 1.948l-7.672 28.923c-.792 2.983-1.705 8.524-2.314 11.812-.548-3.166-1.34-8.829-2.132-11.873l-7.245-28.07c-.487-1.95-1.888-2.74-3.837-2.74-2.07 0-3.47.79-3.957 2.678l-7.246 28.07c-.853 3.228-1.705 8.708-2.253 11.874-.548-3.105-1.34-8.707-2.192-11.934l-7.612-28.74c-.365-1.462-1.461-1.949-2.618-1.949-.304 0-.548 0-.852.061-1.4.244-2.558.974-2.558 2.375 0 .243.061.548.122.852l11.508 41.893c.61 2.192 2.192 2.984 4.08 2.984 1.948 0 3.41-.731 4.019-2.923l7.246-27.523zm44.827 10.656h13.762c9.681 0 15.283-5.297 15.283-14.43 0-8.647-5.419-13.58-15.04-13.58h-13.517c-4.324 0-6.211 1.888-6.211 6.577v38.604c0 1.766 1.157 2.619 2.862 2.619 1.644 0 2.861-.853 2.861-2.558V84.502zm0-5.115V63.8c0-1.34.609-2.13 1.949-2.13h11.691c6.089 0 9.438 3.044 9.438 8.524 0 5.906-3.288 9.194-9.438 9.194h-13.64z" fill="#373938"/></svg>