<svg width="160" height="160" viewBox="0 0 160 160" fill="none" xmlns="http://www.w3.org/2000/svg">
<rect width="160" height="160" fill="white"/>
<path d="M74.7505 96.0359H75.1705C76.3768 92.3523 77.4001 89.1749 78.2402 86.5038C79.0803 83.8111 79.7804 81.5169 80.3405 79.6213C80.9006 77.7257 81.3314 76.1639 81.633 74.936C81.9345 73.7082 82.1607 72.7065 82.3115 71.931C82.4623 71.134 82.5485 70.5093 82.57 70.0569C82.6131 69.583 82.6346 69.1737 82.6346 68.829C82.6346 67.8597 82.57 66.9442 82.4408 66.0825C82.3331 65.1993 82.193 64.3807 82.0207 63.6268C81.8484 62.8513 81.6653 62.1512 81.4714 61.5265C81.2991 60.8802 81.1375 60.3094 80.9867 59.8139C84.778 58.1768 86.7921 57.3367 87.0291 57.2936C87.2661 57.2505 87.503 57.229 87.74 57.229C88.537 57.229 89.1509 57.6059 89.5818 58.3599C90.0126 59.0923 90.228 60.0832 90.228 61.3326C90.228 62.5174 90.0557 64.0037 89.711 65.7917C89.3879 67.5581 88.9247 69.5399 88.3216 71.7371C87.7184 73.9344 86.986 76.3039 86.1244 78.8458C85.2842 81.3877 84.3364 84.0265 83.2809 86.7623C82.2469 89.4981 81.1267 92.2877 79.9204 95.1311C78.7141 97.9531 77.4539 100.743 76.1399 103.5H72.2301C71.7131 103.5 71.2608 103.468 70.873 103.403C70.4853 103.317 70.1298 103.177 69.8067 102.983C69.5051 102.789 69.2359 102.52 68.9989 102.175C68.7835 101.831 68.5896 101.389 68.4173 100.85L59.6607 76.4224C59.4022 77.5641 59.0575 78.8458 58.6267 80.2675C58.2174 81.6893 57.7435 83.1864 57.205 84.7589C56.6664 86.3315 56.0848 87.9471 55.4601 89.6058C54.8354 91.2645 54.1784 92.9124 53.4891 94.5495C52.8213 96.1651 52.1427 97.7377 51.4534 99.2671C50.7641 100.797 50.0855 102.208 49.4177 103.5H45.3141C44.7971 103.5 44.3447 103.468 43.957 103.403C43.5692 103.317 43.2246 103.177 42.923 102.983C42.6214 102.789 42.3521 102.52 42.1152 102.175C41.8782 101.831 41.6628 101.389 41.4689 100.85L27.5747 63.2067L21.8877 65.7271L20.8214 63.4006C21.36 62.9051 22.0493 62.302 22.8894 61.5911C23.7295 60.8802 24.6235 60.2017 25.5713 59.5554C26.5407 58.9092 27.4993 58.3599 28.4471 57.9075C29.3949 57.4551 30.2458 57.229 30.9998 57.229C31.6676 57.229 32.3246 57.4013 32.9708 57.746C33.6171 58.0906 34.091 58.6722 34.3926 59.4908L47.899 96.0359H48.2868C48.9761 94.4418 49.6224 92.7831 50.2255 91.0598C50.8502 89.315 51.4318 87.5701 51.9704 85.8252C52.5089 84.0804 53.0044 82.3678 53.4567 80.6876C53.9091 78.9858 54.3292 77.3594 54.7169 75.8085C55.1047 74.2575 55.4386 72.825 55.7186 71.5109C56.0202 70.1754 56.2787 69.0121 56.4941 68.0212L56.2356 67.1811C55.8048 65.8886 55.3955 64.7792 55.0077 63.853C54.6415 62.9051 54.2969 62.1081 53.9737 61.4619C53.6506 60.7941 53.3598 60.2663 53.1013 59.8786C52.8644 59.4693 52.6705 59.1462 52.5197 58.9092C53.2521 58.2845 54.103 57.8537 55.0724 57.6167C56.0417 57.3582 56.8926 57.229 57.625 57.229C58.2066 57.229 58.7129 57.272 59.1437 57.3582C59.5961 57.4228 59.9946 57.5629 60.3392 57.7783C60.6839 57.9937 60.9855 58.306 61.244 58.7153C61.524 59.1031 61.7717 59.6093 61.9872 60.234L74.7505 96.0359ZM110.617 80.8169C111.048 80.9676 111.554 81.0861 112.136 81.1723C112.631 81.28 113.245 81.3662 113.977 81.4308C114.71 81.4954 115.561 81.5277 116.53 81.5277C118.749 81.5277 120.558 81.2585 121.959 80.7199C123.359 80.1598 124.457 79.4274 125.254 78.5227C126.073 77.6179 126.633 76.584 126.935 75.4207C127.236 74.2575 127.387 73.0512 127.387 71.8018C127.387 70.4231 127.269 69.1198 127.032 67.892C126.795 66.6426 126.278 65.544 125.481 64.5961C124.705 63.6483 123.553 62.8944 122.023 62.3343C120.515 61.7742 118.48 61.4942 115.916 61.4942C115.119 61.4942 114.257 61.5157 113.331 61.5588C112.426 61.6019 111.522 61.688 110.617 61.8173V80.8169ZM110.617 93.3217C110.617 94.7003 110.66 95.9174 110.746 96.9729C110.854 98.0285 110.972 98.9548 111.102 99.7518C111.252 100.527 111.392 101.184 111.522 101.723C111.651 102.24 111.748 102.66 111.813 102.983C111.489 103.155 111.123 103.317 110.714 103.468C110.326 103.597 109.906 103.705 109.454 103.791C109.023 103.899 108.592 103.974 108.161 104.017C107.73 104.06 107.321 104.082 106.933 104.082C106.373 104.082 105.846 104.028 105.35 103.92C104.876 103.812 104.467 103.64 104.122 103.403C103.778 103.145 103.508 102.811 103.314 102.401C103.121 101.992 103.024 101.475 103.024 100.85V62.1404L96.7874 62.5282V59.6847C97.1967 59.5339 97.8968 59.3293 98.8877 59.0708C99.9001 58.7907 101.236 58.5214 102.894 58.263C104.553 57.9829 106.556 57.746 108.904 57.5521C111.274 57.3367 114.031 57.229 117.176 57.229C119.632 57.229 121.937 57.4444 124.091 57.8752C126.267 58.2845 128.173 59.0384 129.81 60.1371C131.448 61.2141 132.74 62.7005 133.688 64.5961C134.636 66.4702 135.11 68.8721 135.11 71.8018C135.11 73.9774 134.743 75.9269 134.011 77.6503C133.279 79.3736 132.223 80.8384 130.844 82.0447C129.466 83.2295 127.786 84.1342 125.804 84.7589C123.822 85.3836 121.592 85.696 119.115 85.696C118.857 85.696 118.437 85.696 117.855 85.696C117.295 85.696 116.638 85.6852 115.884 85.6637C115.13 85.6421 114.301 85.6098 113.396 85.5667C112.491 85.5237 111.565 85.459 110.617 85.3729V93.3217Z" fill="#373938"/>
</svg>
