<svg width="160" height="161" viewBox="0 0 160 161" fill="none" xmlns="http://www.w3.org/2000/svg">
<rect y="0.5" width="160" height="160" rx="80" fill="#D8D9DB"/>
<path d="M56.1056 74.3463C57.0799 70.5711 57.8106 65.3954 58.4195 62.0465C58.9675 65.3954 59.6373 70.6929 60.6115 74.4681L67.5531 101.808C68.1011 104.061 69.7451 104.792 71.5718 104.792C73.5203 104.792 75.0426 104 75.6515 101.869L87.586 59.7326C87.6469 59.4891 87.7078 59.2455 87.7078 59.0019C87.7078 57.6624 86.5509 56.9317 85.1504 56.6881C84.9068 56.6272 84.6024 56.6272 84.3588 56.6272C83.0801 56.6272 82.045 57.1143 81.6188 58.5757L73.9466 87.4987C73.155 90.4823 72.2416 96.0233 71.6327 99.3114C71.0847 96.1451 70.2931 90.4823 69.5015 87.4378L62.2556 59.3673C61.7685 57.4188 60.368 56.6272 58.4195 56.6272C56.3492 56.6272 54.9487 57.4188 54.4616 59.3064L47.2156 87.3769C46.3632 90.6041 45.5107 96.0842 44.9627 99.2505C44.4147 96.1451 43.6231 90.5432 42.7706 87.316L35.1593 58.5757C34.794 57.1143 33.698 56.6272 32.541 56.6272C32.2366 56.6272 31.993 56.6272 31.6886 56.6881C30.2881 56.9317 29.1312 57.6624 29.1312 59.0628C29.1312 59.3064 29.1921 59.6108 29.2529 59.9153L40.7612 101.808C41.3702 104 42.9533 104.792 44.8409 104.792C46.7894 104.792 48.2508 104.061 48.8597 101.869L56.1056 74.3463ZM100.933 85.0022H114.695C124.376 85.0022 129.978 79.7047 129.978 70.5711C129.978 61.9247 124.559 56.9926 114.938 56.9926H101.421C97.0973 56.9926 95.2097 58.8802 95.2097 63.5687V102.173C95.2097 103.939 96.3666 104.792 98.0715 104.792C99.7156 104.792 100.933 103.939 100.933 102.234V85.0022ZM100.933 79.8874V64.2994C100.933 62.9598 101.542 62.1682 102.882 62.1682H114.573C120.662 62.1682 124.011 65.2128 124.011 70.6929C124.011 76.5993 120.723 79.8874 114.573 79.8874H100.933Z" fill="#373938"/>
</svg>
