<svg width="1077" height="586" viewBox="0 0 1077 586" fill="none" xmlns="http://www.w3.org/2000/svg">
<rect x="155.123" y="304.346" width="160" height="160" rx="80" fill="#D8D9DB"/>
<path d="M229.874 400.382H230.294C231.5 396.698 232.523 393.521 233.363 390.849C234.203 388.157 234.903 385.863 235.464 383.967C236.024 382.071 236.454 380.51 236.756 379.282C237.058 378.054 237.284 377.052 237.435 376.277C237.585 375.48 237.672 374.855 237.693 374.403C237.736 373.929 237.758 373.519 237.758 373.175C237.758 372.205 237.693 371.29 237.564 370.428C237.456 369.545 237.316 368.726 237.144 367.972C236.971 367.197 236.788 366.497 236.594 365.872C236.422 365.226 236.261 364.655 236.11 364.16C239.901 362.522 241.915 361.682 242.152 361.639C242.389 361.596 242.626 361.575 242.863 361.575C243.66 361.575 244.274 361.952 244.705 362.706C245.136 363.438 245.351 364.429 245.351 365.678C245.351 366.863 245.179 368.349 244.834 370.137C244.511 371.904 244.048 373.886 243.445 376.083C242.841 378.28 242.109 380.65 241.247 383.192C240.407 385.733 239.459 388.372 238.404 391.108C237.37 393.844 236.25 396.633 235.043 399.477C233.837 402.299 232.577 405.088 231.263 407.846H227.353C226.836 407.846 226.384 407.813 225.996 407.749C225.608 407.663 225.253 407.523 224.93 407.329C224.628 407.135 224.359 406.866 224.122 406.521C223.907 406.176 223.713 405.735 223.54 405.196L214.784 380.768C214.525 381.91 214.181 383.192 213.75 384.613C213.34 386.035 212.867 387.532 212.328 389.105C211.789 390.677 211.208 392.293 210.583 393.951C209.958 395.61 209.301 397.258 208.612 398.895C207.944 400.511 207.266 402.083 206.576 403.613C205.887 405.142 205.209 406.553 204.541 407.846H200.437C199.92 407.846 199.468 407.813 199.08 407.749C198.692 407.663 198.348 407.523 198.046 407.329C197.744 407.135 197.475 406.866 197.238 406.521C197.001 406.176 196.786 405.735 196.592 405.196L182.698 367.552L177.011 370.073L175.944 367.746C176.483 367.251 177.172 366.648 178.012 365.937C178.853 365.226 179.747 364.547 180.694 363.901C181.664 363.255 182.622 362.706 183.57 362.253C184.518 361.801 185.369 361.575 186.123 361.575C186.791 361.575 187.448 361.747 188.094 362.092C188.74 362.436 189.214 363.018 189.516 363.837L203.022 400.382H203.41C204.099 398.788 204.745 397.129 205.349 395.406C205.973 393.661 206.555 391.916 207.093 390.171C207.632 388.426 208.127 386.714 208.58 385.033C209.032 383.332 209.452 381.705 209.84 380.154C210.228 378.603 210.562 377.171 210.842 375.857C211.143 374.521 211.402 373.358 211.617 372.367L211.359 371.527C210.928 370.234 210.519 369.125 210.131 368.199C209.765 367.251 209.42 366.454 209.097 365.808C208.774 365.14 208.483 364.612 208.224 364.224C207.987 363.815 207.794 363.492 207.643 363.255C208.375 362.63 209.226 362.199 210.195 361.962C211.165 361.704 212.016 361.575 212.748 361.575C213.33 361.575 213.836 361.618 214.267 361.704C214.719 361.769 215.118 361.909 215.462 362.124C215.807 362.339 216.109 362.652 216.367 363.061C216.647 363.449 216.895 363.955 217.11 364.58L229.874 400.382ZM265.74 385.163C266.171 385.313 266.677 385.432 267.259 385.518C267.754 385.626 268.368 385.712 269.1 385.776C269.833 385.841 270.684 385.873 271.653 385.873C273.872 385.873 275.681 385.604 277.082 385.066C278.482 384.506 279.58 383.773 280.377 382.868C281.196 381.964 281.756 380.93 282.058 379.766C282.359 378.603 282.51 377.397 282.51 376.147C282.51 374.769 282.392 373.466 282.155 372.238C281.918 370.988 281.401 369.89 280.604 368.942C279.828 367.994 278.676 367.24 277.146 366.68C275.638 366.12 273.603 365.84 271.039 365.84C270.242 365.84 269.381 365.861 268.454 365.904C267.55 365.948 266.645 366.034 265.74 366.163V385.163ZM265.74 397.667C265.74 399.046 265.783 400.263 265.869 401.319C265.977 402.374 266.095 403.3 266.225 404.097C266.376 404.873 266.516 405.53 266.645 406.069C266.774 406.586 266.871 407.006 266.936 407.329C266.612 407.501 266.246 407.663 265.837 407.813C265.449 407.943 265.029 408.05 264.577 408.137C264.146 408.244 263.715 408.32 263.284 408.363C262.853 408.406 262.444 408.427 262.056 408.427C261.496 408.427 260.969 408.373 260.473 408.266C259.999 408.158 259.59 407.986 259.245 407.749C258.901 407.49 258.631 407.156 258.437 406.747C258.244 406.338 258.147 405.821 258.147 405.196V366.486L251.91 366.874V364.03C252.32 363.88 253.02 363.675 254.011 363.416C255.023 363.136 256.359 362.867 258.017 362.609C259.676 362.329 261.679 362.092 264.027 361.898C266.397 361.682 269.154 361.575 272.299 361.575C274.755 361.575 277.06 361.79 279.214 362.221C281.39 362.63 283.296 363.384 284.933 364.483C286.571 365.56 287.863 367.046 288.811 368.942C289.759 370.816 290.233 373.218 290.233 376.147C290.233 378.323 289.866 380.273 289.134 381.996C288.402 383.719 287.346 385.184 285.967 386.39C284.589 387.575 282.909 388.48 280.927 389.105C278.945 389.729 276.715 390.042 274.238 390.042C273.98 390.042 273.56 390.042 272.978 390.042C272.418 390.042 271.761 390.031 271.007 390.009C270.253 389.988 269.424 389.956 268.519 389.912C267.614 389.869 266.688 389.805 265.74 389.719V397.667Z" fill="#373938"/>
<rect width="160" height="160" transform="translate(346.123 304.346)" fill="#D8D9DB"/>
<path d="M420.874 400.382H421.294C422.5 396.698 423.523 393.521 424.363 390.849C425.203 388.157 425.903 385.863 426.464 383.967C427.024 382.071 427.454 380.51 427.756 379.282C428.058 378.054 428.284 377.052 428.435 376.277C428.585 375.48 428.672 374.855 428.693 374.403C428.736 373.929 428.758 373.519 428.758 373.175C428.758 372.205 428.693 371.29 428.564 370.428C428.456 369.545 428.316 368.726 428.144 367.972C427.971 367.197 427.788 366.497 427.594 365.872C427.422 365.226 427.261 364.655 427.11 364.16C430.901 362.522 432.915 361.682 433.152 361.639C433.389 361.596 433.626 361.575 433.863 361.575C434.66 361.575 435.274 361.952 435.705 362.706C436.136 363.438 436.351 364.429 436.351 365.678C436.351 366.863 436.179 368.349 435.834 370.137C435.511 371.904 435.048 373.886 434.445 376.083C433.841 378.28 433.109 380.65 432.247 383.192C431.407 385.733 430.459 388.372 429.404 391.108C428.37 393.844 427.25 396.633 426.043 399.477C424.837 402.299 423.577 405.088 422.263 407.846H418.353C417.836 407.846 417.384 407.813 416.996 407.749C416.608 407.663 416.253 407.523 415.93 407.329C415.628 407.135 415.359 406.866 415.122 406.521C414.907 406.176 414.713 405.735 414.54 405.196L405.784 380.768C405.525 381.91 405.181 383.192 404.75 384.613C404.34 386.035 403.867 387.532 403.328 389.105C402.789 390.677 402.208 392.293 401.583 393.951C400.958 395.61 400.301 397.258 399.612 398.895C398.944 400.511 398.266 402.083 397.576 403.613C396.887 405.142 396.209 406.553 395.541 407.846H391.437C390.92 407.846 390.468 407.813 390.08 407.749C389.692 407.663 389.348 407.523 389.046 407.329C388.744 407.135 388.475 406.866 388.238 406.521C388.001 406.176 387.786 405.735 387.592 405.196L373.698 367.552L368.011 370.073L366.944 367.746C367.483 367.251 368.172 366.648 369.012 365.937C369.853 365.226 370.747 364.547 371.694 363.901C372.664 363.255 373.622 362.706 374.57 362.253C375.518 361.801 376.369 361.575 377.123 361.575C377.791 361.575 378.448 361.747 379.094 362.092C379.74 362.436 380.214 363.018 380.516 363.837L394.022 400.382H394.41C395.099 398.788 395.745 397.129 396.349 395.406C396.973 393.661 397.555 391.916 398.093 390.171C398.632 388.426 399.127 386.714 399.58 385.033C400.032 383.332 400.452 381.705 400.84 380.154C401.228 378.603 401.562 377.171 401.842 375.857C402.143 374.521 402.402 373.358 402.617 372.367L402.359 371.527C401.928 370.234 401.519 369.125 401.131 368.199C400.765 367.251 400.42 366.454 400.097 365.808C399.774 365.14 399.483 364.612 399.224 364.224C398.987 363.815 398.794 363.492 398.643 363.255C399.375 362.63 400.226 362.199 401.195 361.962C402.165 361.704 403.016 361.575 403.748 361.575C404.33 361.575 404.836 361.618 405.267 361.704C405.719 361.769 406.118 361.909 406.462 362.124C406.807 362.339 407.109 362.652 407.367 363.061C407.647 363.449 407.895 363.955 408.11 364.58L420.874 400.382ZM456.74 385.163C457.171 385.313 457.677 385.432 458.259 385.518C458.754 385.626 459.368 385.712 460.1 385.776C460.833 385.841 461.684 385.873 462.653 385.873C464.872 385.873 466.681 385.604 468.082 385.066C469.482 384.506 470.58 383.773 471.377 382.868C472.196 381.964 472.756 380.93 473.058 379.766C473.359 378.603 473.51 377.397 473.51 376.147C473.51 374.769 473.392 373.466 473.155 372.238C472.918 370.988 472.401 369.89 471.604 368.942C470.828 367.994 469.676 367.24 468.146 366.68C466.638 366.12 464.603 365.84 462.039 365.84C461.242 365.84 460.381 365.861 459.454 365.904C458.55 365.948 457.645 366.034 456.74 366.163V385.163ZM456.74 397.667C456.74 399.046 456.783 400.263 456.869 401.319C456.977 402.374 457.095 403.3 457.225 404.097C457.376 404.873 457.516 405.53 457.645 406.069C457.774 406.586 457.871 407.006 457.936 407.329C457.612 407.501 457.246 407.663 456.837 407.813C456.449 407.943 456.029 408.05 455.577 408.137C455.146 408.244 454.715 408.32 454.284 408.363C453.853 408.406 453.444 408.427 453.056 408.427C452.496 408.427 451.969 408.373 451.473 408.266C450.999 408.158 450.59 407.986 450.245 407.749C449.901 407.49 449.631 407.156 449.437 406.747C449.244 406.338 449.147 405.821 449.147 405.196V366.486L442.91 366.874V364.03C443.32 363.88 444.02 363.675 445.011 363.416C446.023 363.136 447.359 362.867 449.017 362.609C450.676 362.329 452.679 362.092 455.027 361.898C457.397 361.682 460.154 361.575 463.299 361.575C465.755 361.575 468.06 361.79 470.214 362.221C472.39 362.63 474.296 363.384 475.933 364.483C477.571 365.56 478.863 367.046 479.811 368.942C480.759 370.816 481.233 373.218 481.233 376.147C481.233 378.323 480.866 380.273 480.134 381.996C479.402 383.719 478.346 385.184 476.967 386.39C475.589 387.575 473.909 388.48 471.927 389.105C469.945 389.729 467.715 390.042 465.238 390.042C464.98 390.042 464.56 390.042 463.978 390.042C463.418 390.042 462.761 390.031 462.007 390.009C461.253 389.988 460.424 389.956 459.519 389.912C458.614 389.869 457.688 389.805 456.74 389.719V397.667Z" fill="#373938"/>
<path d="M253.363 219.269H254.18C256.526 212.106 258.516 205.927 260.15 200.733C261.783 195.496 263.145 191.035 264.234 187.349C265.323 183.662 266.161 180.625 266.747 178.238C267.334 175.85 267.774 173.902 268.067 172.394C268.36 170.844 268.528 169.629 268.57 168.749C268.653 167.828 268.695 167.032 268.695 166.362C268.695 164.477 268.57 162.696 268.318 161.021C268.109 159.303 267.837 157.711 267.501 156.245C267.166 154.737 266.81 153.376 266.433 152.161C266.098 150.904 265.784 149.794 265.491 148.831C272.863 145.647 276.78 144.013 277.241 143.929C277.702 143.846 278.162 143.804 278.623 143.804C280.173 143.804 281.367 144.537 282.205 146.003C283.043 147.427 283.462 149.354 283.462 151.784C283.462 154.088 283.126 156.978 282.456 160.455C281.828 163.89 280.927 167.744 279.754 172.017C278.581 176.29 277.157 180.898 275.481 185.841C273.848 190.784 272.005 195.915 269.952 201.235C267.941 206.555 265.763 211.98 263.417 217.51C261.071 222.997 258.621 228.422 256.065 233.784H248.462C247.457 233.784 246.577 233.721 245.823 233.596C245.069 233.428 244.378 233.156 243.75 232.779C243.163 232.402 242.639 231.878 242.179 231.208C241.76 230.538 241.383 229.679 241.048 228.632L224.019 181.128C223.517 183.348 222.846 185.841 222.009 188.605C221.213 191.37 220.291 194.282 219.244 197.34C218.196 200.398 217.065 203.539 215.851 206.765C214.636 209.99 213.358 213.195 212.018 216.379C210.719 219.521 209.4 222.579 208.059 225.553C206.719 228.527 205.399 231.271 204.1 233.784H196.12C195.115 233.784 194.235 233.721 193.481 233.596C192.727 233.428 192.057 233.156 191.47 232.779C190.884 232.402 190.36 231.878 189.9 231.208C189.439 230.538 189.02 229.679 188.643 228.632L161.624 155.428L150.565 160.33L148.491 155.805C149.538 154.842 150.879 153.669 152.512 152.287C154.146 150.904 155.885 149.585 157.728 148.328C159.613 147.071 161.477 146.003 163.32 145.123C165.163 144.244 166.818 143.804 168.284 143.804C169.583 143.804 170.86 144.139 172.117 144.809C173.374 145.479 174.295 146.61 174.882 148.202L201.147 219.269H201.901C203.242 216.169 204.498 212.944 205.671 209.593C206.886 206.199 208.017 202.806 209.064 199.413C210.112 196.02 211.075 192.69 211.955 189.422C212.835 186.113 213.651 182.95 214.405 179.934C215.159 176.918 215.809 174.132 216.353 171.577C216.94 168.98 217.442 166.718 217.861 164.791L217.359 163.157C216.521 160.644 215.725 158.486 214.971 156.685C214.259 154.842 213.589 153.292 212.96 152.035C212.332 150.737 211.766 149.71 211.264 148.956C210.803 148.16 210.426 147.532 210.133 147.071C211.557 145.856 213.212 145.019 215.097 144.558C216.982 144.055 218.636 143.804 220.061 143.804C221.192 143.804 222.176 143.888 223.014 144.055C223.894 144.181 224.669 144.453 225.339 144.872C226.009 145.291 226.595 145.898 227.098 146.694C227.643 147.448 228.124 148.433 228.543 149.647L253.363 219.269ZM315.508 189.485C315.508 195.14 315.968 200.356 316.89 205.131C317.812 209.865 319.299 213.949 321.351 217.384C323.446 220.819 326.148 223.5 329.457 225.427C332.808 227.312 336.872 228.255 341.647 228.255C346.381 228.255 350.381 227.291 353.649 225.364C356.958 223.437 359.639 220.756 361.692 217.321C363.786 213.886 365.294 209.802 366.216 205.068C367.179 200.335 367.661 195.14 367.661 189.485C367.661 184.165 367.2 179.159 366.279 174.467C365.357 169.734 363.87 165.608 361.817 162.089C359.765 158.57 357.084 155.784 353.774 153.732C350.465 151.679 346.423 150.653 341.647 150.653C336.872 150.653 332.808 151.721 329.457 153.857C326.148 155.952 323.446 158.78 321.351 162.34C319.299 165.901 317.812 170.027 316.89 174.719C315.968 179.411 315.508 184.333 315.508 189.485ZM383.998 189.485C383.998 196.397 383.035 202.723 381.108 208.461C379.181 214.2 376.395 219.144 372.751 223.291C369.106 227.396 364.666 230.58 359.43 232.842C354.193 235.104 348.266 236.235 341.647 236.235C335.029 236.235 329.08 235.104 323.802 232.842C318.566 230.58 314.125 227.396 310.481 223.291C306.836 219.144 304.03 214.2 302.061 208.461C300.134 202.723 299.17 196.397 299.17 189.485C299.17 182.573 300.134 176.248 302.061 170.509C304.03 164.77 306.836 159.848 310.481 155.743C314.125 151.595 318.566 148.391 323.802 146.129C329.08 143.825 335.029 142.673 341.647 142.673C348.266 142.673 354.193 143.825 359.43 146.129C364.666 148.391 369.106 151.595 372.751 155.743C376.395 159.848 379.181 164.77 381.108 170.509C383.035 176.248 383.998 182.573 383.998 189.485ZM416.798 189.485C416.798 195.14 417.259 200.356 418.181 205.131C419.102 209.865 420.59 213.949 422.642 217.384C424.737 220.819 427.439 223.5 430.748 225.427C434.099 227.312 438.163 228.255 442.938 228.255C447.672 228.255 451.672 227.291 454.94 225.364C458.249 223.437 460.93 220.756 462.983 217.321C465.077 213.886 466.585 209.802 467.507 205.068C468.47 200.335 468.952 195.14 468.952 189.485C468.952 184.165 468.491 179.159 467.57 174.467C466.648 169.734 465.161 165.608 463.108 162.089C461.056 158.57 458.375 155.784 455.065 153.732C451.756 151.679 447.714 150.653 442.938 150.653C438.163 150.653 434.099 151.721 430.748 153.857C427.439 155.952 424.737 158.78 422.642 162.34C420.59 165.901 419.102 170.027 418.181 174.719C417.259 179.411 416.798 184.333 416.798 189.485ZM485.289 189.485C485.289 196.397 484.326 202.723 482.399 208.461C480.472 214.2 477.686 219.144 474.042 223.291C470.397 227.396 465.957 230.58 460.72 232.842C455.484 235.104 449.557 236.235 442.938 236.235C436.319 236.235 430.371 235.104 425.093 232.842C419.856 230.58 415.416 227.396 411.772 223.291C408.127 219.144 405.321 214.2 403.352 208.461C401.425 202.723 400.461 196.397 400.461 189.485C400.461 182.573 401.425 176.248 403.352 170.509C405.321 164.77 408.127 159.848 411.772 155.743C415.416 151.595 419.856 148.391 425.093 146.129C430.371 143.825 436.319 142.673 442.938 142.673C449.557 142.673 455.484 143.825 460.72 146.129C465.957 148.391 470.397 151.595 474.042 155.743C477.686 159.848 480.472 164.77 482.399 170.509C484.326 176.248 485.289 182.573 485.289 189.485ZM524.561 189.674C525.399 189.967 526.384 190.197 527.515 190.365C528.478 190.574 529.672 190.742 531.096 190.868C532.52 190.993 534.175 191.056 536.06 191.056C540.375 191.056 543.894 190.532 546.617 189.485C549.339 188.396 551.476 186.972 553.026 185.212C554.618 183.453 555.707 181.442 556.293 179.18C556.88 176.918 557.173 174.572 557.173 172.143C557.173 169.462 556.943 166.927 556.482 164.539C556.021 162.11 555.016 159.973 553.466 158.13C551.958 156.287 549.716 154.821 546.742 153.732C543.81 152.643 539.851 152.098 534.866 152.098C533.316 152.098 531.641 152.14 529.839 152.224C528.08 152.308 526.321 152.475 524.561 152.726V189.674ZM524.561 213.991C524.561 216.672 524.645 219.039 524.813 221.091C525.022 223.144 525.252 224.945 525.504 226.495C525.797 228.003 526.069 229.281 526.321 230.328C526.572 231.334 526.761 232.15 526.886 232.779C526.258 233.114 525.546 233.428 524.75 233.721C523.996 233.973 523.179 234.182 522.299 234.35C521.461 234.559 520.624 234.706 519.786 234.79C518.948 234.873 518.152 234.915 517.398 234.915C516.309 234.915 515.283 234.81 514.319 234.601C513.398 234.392 512.602 234.056 511.931 233.596C511.261 233.093 510.737 232.444 510.36 231.648C509.983 230.852 509.795 229.846 509.795 228.632V153.355L497.668 154.109V148.579C498.464 148.286 499.825 147.888 501.752 147.385C503.721 146.841 506.318 146.317 509.544 145.815C512.769 145.27 516.665 144.809 521.231 144.432C525.839 144.013 531.201 143.804 537.317 143.804C542.092 143.804 546.575 144.223 550.764 145.06C554.995 145.856 558.702 147.323 561.886 149.459C565.069 151.553 567.583 154.444 569.426 158.13C571.269 161.775 572.191 166.446 572.191 172.143C572.191 176.374 571.478 180.165 570.054 183.516C568.63 186.867 566.577 189.716 563.896 192.061C561.215 194.365 557.948 196.125 554.094 197.34C550.24 198.554 545.904 199.162 541.087 199.162C540.584 199.162 539.767 199.162 538.636 199.162C537.547 199.162 536.27 199.141 534.803 199.099C533.337 199.057 531.725 198.994 529.965 198.91C528.206 198.827 526.404 198.701 524.561 198.533V213.991ZM608.384 189.674C609.222 189.967 610.206 190.197 611.337 190.365C612.301 190.574 613.494 190.742 614.919 190.868C616.343 190.993 617.998 191.056 619.883 191.056C624.197 191.056 627.716 190.532 630.439 189.485C633.162 188.396 635.298 186.972 636.848 185.212C638.44 183.453 639.529 181.442 640.116 179.18C640.702 176.918 640.995 174.572 640.995 172.143C640.995 169.462 640.765 166.927 640.304 164.539C639.843 162.11 638.838 159.973 637.288 158.13C635.78 156.287 633.539 154.821 630.565 153.732C627.632 152.643 623.674 152.098 618.689 152.098C617.139 152.098 615.463 152.14 613.662 152.224C611.903 152.308 610.143 152.475 608.384 152.726V189.674ZM608.384 213.991C608.384 216.672 608.468 219.039 608.635 221.091C608.845 223.144 609.075 224.945 609.326 226.495C609.62 228.003 609.892 229.281 610.143 230.328C610.395 231.334 610.583 232.15 610.709 232.779C610.08 233.114 609.368 233.428 608.572 233.721C607.818 233.973 607.001 234.182 606.122 234.35C605.284 234.559 604.446 234.706 603.608 234.79C602.77 234.873 601.975 234.915 601.221 234.915C600.131 234.915 599.105 234.81 598.142 234.601C597.22 234.392 596.424 234.056 595.754 233.596C595.084 233.093 594.56 232.444 594.183 231.648C593.806 230.852 593.617 229.846 593.617 228.632V153.355L581.49 154.109V148.579C582.286 148.286 583.648 147.888 585.575 147.385C587.543 146.841 590.141 146.317 593.366 145.815C596.592 145.27 600.487 144.809 605.054 144.432C609.661 144.013 615.023 143.804 621.139 143.804C625.915 143.804 630.397 144.223 634.586 145.06C638.817 145.856 642.524 147.323 645.708 149.459C648.892 151.553 651.405 154.444 653.248 158.13C655.091 161.775 656.013 166.446 656.013 172.143C656.013 176.374 655.301 180.165 653.877 183.516C652.452 186.867 650.4 189.716 647.719 192.061C645.038 194.365 641.77 196.125 637.916 197.34C634.063 198.554 629.727 199.162 624.91 199.162C624.407 199.162 623.59 199.162 622.459 199.162C621.37 199.162 620.092 199.141 618.626 199.099C617.16 199.057 615.547 198.994 613.788 198.91C612.028 198.827 610.227 198.701 608.384 198.533V213.991ZM692.081 224.924H703.454C709.067 224.924 714.701 224.547 720.357 223.793C726.012 223.039 731.562 221.783 737.008 220.023C737.008 220.065 737.071 220.295 737.197 220.714C737.322 221.091 737.469 221.615 737.636 222.285C737.804 222.956 737.951 223.731 738.076 224.61C738.244 225.448 738.328 226.286 738.328 227.124C738.328 228.967 737.846 230.391 736.882 231.396C735.961 232.402 734.39 233.135 732.17 233.596C729.991 234.056 727.08 234.329 723.436 234.413C719.833 234.496 715.351 234.538 709.989 234.538C707.14 234.538 704.271 234.517 701.38 234.475C698.532 234.433 695.851 234.371 693.337 234.287C690.866 234.245 688.646 234.161 686.677 234.036C684.75 233.952 683.263 233.868 682.215 233.784C680.247 233.617 678.927 233.135 678.257 232.339C677.628 231.501 677.314 230.182 677.314 228.38V151.658H665.187V146.694C665.815 146.359 666.758 146.024 668.015 145.689C669.271 145.354 670.717 145.04 672.35 144.746C674.026 144.453 675.848 144.223 677.817 144.055C679.786 143.888 681.797 143.804 683.849 143.804C685.483 143.804 686.823 143.825 687.871 143.867C688.918 143.909 689.756 144.034 690.384 144.244C691.012 144.411 691.452 144.725 691.704 145.186C691.955 145.647 692.081 146.275 692.081 147.071V224.924ZM760.069 233.784C758.1 233.617 756.78 233.135 756.11 232.339C755.482 231.501 755.167 230.182 755.167 228.38V152.601H743.166V147.574C744.423 147.155 746.412 146.736 749.135 146.317C751.9 145.856 755.126 145.438 758.812 145.06C762.498 144.683 766.541 144.39 770.939 144.181C775.338 143.929 779.82 143.804 784.386 143.804C786.355 143.804 788.512 143.825 790.858 143.867C793.246 143.909 795.613 144.013 797.958 144.181C800.346 144.306 802.65 144.495 804.87 144.746C807.091 144.998 809.059 145.354 810.777 145.815C812.494 146.275 813.856 146.862 814.861 147.574C815.908 148.244 816.432 149.061 816.432 150.024C816.432 150.443 816.16 151.197 815.615 152.287C815.113 153.376 814.526 154.528 813.856 155.743C813.186 156.915 812.536 158.026 811.908 159.073C811.28 160.078 810.861 160.707 810.651 160.958C810.651 160.916 810.086 160.518 808.955 159.764C807.865 159.01 806.19 158.193 803.928 157.313C801.708 156.392 798.922 155.554 795.571 154.8C792.219 154.046 788.324 153.648 783.883 153.606L769.934 153.48V183.202H803.174V186.281C803.174 188.501 802.692 190.03 801.729 190.868C800.807 191.663 799.32 192.061 797.267 192.061H769.934V224.924H781.307C786.92 224.924 792.555 224.547 798.21 223.793C803.865 223.039 809.415 221.783 814.861 220.023C814.861 220.065 814.924 220.295 815.05 220.714C815.175 221.091 815.322 221.615 815.49 222.285C815.657 222.956 815.804 223.731 815.929 224.61C816.097 225.448 816.181 226.286 816.181 227.124C816.181 229.092 815.678 230.58 814.673 231.585C813.667 232.59 812.055 233.323 809.834 233.784C807.614 234.203 804.682 234.433 801.037 234.475C797.435 234.517 793.036 234.538 787.842 234.538C784.993 234.538 782.124 234.517 779.233 234.475C776.385 234.433 773.704 234.371 771.191 234.287C768.719 234.245 766.499 234.161 764.53 234.036C762.603 233.952 761.116 233.868 760.069 233.784Z" fill="#C3C8CE"/>
</svg>
