<svg width="160" height="160" viewBox="0 0 160 160" fill="none" xmlns="http://www.w3.org/2000/svg">
<rect width="160" height="160" fill="#D8D9DB"/>
<path d="M56.1056 73.8463C57.0799 70.0711 57.8106 64.8954 58.4195 61.5465C58.9675 64.8954 59.6373 70.1929 60.6115 73.9681L67.5531 101.308C68.1011 103.561 69.7451 104.292 71.5718 104.292C73.5203 104.292 75.0426 103.5 75.6515 101.369L87.586 59.2326C87.6469 58.9891 87.7078 58.7455 87.7078 58.5019C87.7078 57.1624 86.5509 56.4317 85.1504 56.1881C84.9068 56.1272 84.6024 56.1272 84.3588 56.1272C83.0801 56.1272 82.045 56.6143 81.6188 58.0757L73.9466 86.9987C73.155 89.9823 72.2416 95.5233 71.6327 98.8114C71.0847 95.6451 70.2931 89.9823 69.5015 86.9378L62.2556 58.8673C61.7685 56.9188 60.368 56.1272 58.4195 56.1272C56.3492 56.1272 54.9487 56.9188 54.4616 58.8064L47.2156 86.8769C46.3632 90.1041 45.5107 95.5842 44.9627 98.7505C44.4147 95.6451 43.6231 90.0432 42.7706 86.816L35.1593 58.0757C34.794 56.6143 33.698 56.1272 32.541 56.1272C32.2366 56.1272 31.993 56.1272 31.6886 56.1881C30.2881 56.4317 29.1312 57.1624 29.1312 58.5628C29.1312 58.8064 29.1921 59.1108 29.2529 59.4153L40.7612 101.308C41.3702 103.5 42.9533 104.292 44.8409 104.292C46.7894 104.292 48.2508 103.561 48.8597 101.369L56.1056 73.8463ZM100.933 84.5022H114.695C124.376 84.5022 129.978 79.2047 129.978 70.0711C129.978 61.4247 124.559 56.4926 114.938 56.4926H101.421C97.0973 56.4926 95.2097 58.3802 95.2097 63.0687V101.673C95.2097 103.439 96.3666 104.292 98.0715 104.292C99.7156 104.292 100.933 103.439 100.933 101.734V84.5022ZM100.933 79.3874V63.7994C100.933 62.4598 101.542 61.6682 102.882 61.6682H114.573C120.662 61.6682 124.011 64.7128 124.011 70.1929C124.011 76.0993 120.723 79.3874 114.573 79.3874H100.933Z" fill="#373938"/>
</svg>
